<svg width="93" height="34" viewBox="0 0 93 34" fill="none" xmlns="http://www.w3.org/2000/svg">
<rect width="5" height="17" transform="matrix(1 0 -0.394102 0.919067 19.458 6)" fill="#00F3A9"/>
<rect width="5" height="17" transform="matrix(1 0 -0.394102 0.919067 39.458 6)" fill="#24C4FD"/>
<rect width="5" height="17" transform="matrix(1 0 -0.394102 0.919067 46.458 6)" fill="#24C4FD"/>
<rect width="5" height="8" transform="matrix(1 0 -0.394102 0.919067 21.9111 14.2715)" fill="#00F3A9"/>
<rect width="5" height="8" transform="matrix(1 0 -0.394102 0.919067 28.9111 14.2715)" fill="#19E3E4"/>
<rect width="5" height="8" transform="matrix(1 0 -0.394102 0.919067 49.9111 14.2715)" fill="#05ABFB"/>
<rect width="5" height="8" transform="matrix(1 0 -0.394102 0.919067 56.9111 14.2715)" fill="#DA22FF"/>
<rect width="5" height="8" transform="matrix(1 0 -0.394102 0.919067 62.9111 14.2715)" fill="#DA22FF"/>
<rect width="5" height="8" transform="matrix(1 0 -0.394102 0.919067 69.9111 14.2715)" fill="#AD5CF2"/>
<rect width="5" height="15" transform="matrix(1 0 -0.394102 0.919067 75.9111 14.2715)" fill="#AD5CF2"/>
<rect width="5" height="3" transform="matrix(1 0 -0.394102 0.919067 30.4873 10.5952)" fill="#19E3E4"/>
<rect width="5" height="3" transform="matrix(1 0 -0.394102 0.919067 51.4873 10.5952)" fill="#05ABFB"/>
</svg>
